<?xml version="1.0" standalone="no"?><svg xmlns:xlink="http://www.w3.org/1999/xlink" xmlns="http://www.w3.org/2000/svg" viewBox="0 0 1000 625.0054103653944" preserveAspectRatio="xMaxYMax slice"><g transform="scale(0.8656584631099645)"><rect x="0" y="0" width="1155.2" height="722" fill="#ffffff"/><circle cx="36.1" cy="36.1" r="7.22" fill="#f8f7f9"/><circle cx="108.3" cy="36.1" r="7.22" fill="#dae7f5"/><circle cx="180.5" cy="36.1" r="7.22" fill="#ecf2fa"/><circle cx="252.7" cy="36.1" r="7.22" fill="#ded9e2"/><circle cx="324.90000000000003" cy="36.1" r="7.22" fill="#e6eef8"/><circle cx="397.1" cy="36.1" r="7.22" fill="#fdfdfd"/><circle cx="469.3" cy="36.1" r="7.22" fill="#eae7ec"/><circle cx="541.5" cy="36.1" r="7.22" fill="#e2ecf7"/><circle cx="613.7" cy="36.1" r="7.22" fill="#e8f0f9"/><circle cx="685.9" cy="36.1" r="7.22" fill="#d6e4f4"/><circle cx="758.1" cy="36.1" r="7.22" fill="#fcfcfc"/><circle cx="830.3000000000001" cy="36.1" r="7.22" fill="#fbfbfc"/><circle cx="902.5" cy="36.1" r="7.22" fill="#d1e0f3"/><circle cx="974.7" cy="36.1" r="7.22" fill="#ffffff"/><circle cx="1046.9" cy="36.1" r="7.22" fill="#f5f8fc"/><circle cx="1119.1000000000001" cy="36.1" r="7.22" fill="#fcfbfc"/><circle cx="36.1" cy="108.3" r="7.22" fill="#eaf1f9"/><circle cx="108.3" cy="108.3" r="7.22" fill="#f4f2f5"/><circle cx="180.5" cy="108.3" r="7.22" fill="#f8fafd"/><circle cx="252.7" cy="108.3" r="7.22" fill="#efecf1"/><circle cx="324.90000000000003" cy="108.3" r="7.22" fill="#f2f0f4"/><circle cx="397.1" cy="108.3" r="7.22" fill="#ece9ee"/><circle cx="469.3" cy="108.3" r="7.22" fill="#f3f7fc"/><circle cx="541.5" cy="108.3" r="7.22" fill="#e9f0f9"/><circle cx="613.7" cy="108.3" r="7.22" fill="#dee9f6"/><circle cx="685.9" cy="108.3" r="7.22" fill="#f3f7fc"/><circle cx="758.1" cy="108.3" r="7.22" fill="#e0dbe3"/><circle cx="830.3000000000001" cy="108.3" r="7.22" fill="#e7eff8"/><circle cx="902.5" cy="108.3" r="7.22" fill="#f5f3f6"/><circle cx="974.7" cy="108.3" r="7.22" fill="#f4f2f5"/><circle cx="1046.9" cy="108.3" r="7.22" fill="#eeebef"/><circle cx="1119.1000000000001" cy="108.3" r="7.22" fill="#d6e3f4"/><circle cx="36.1" cy="180.5" r="7.22" fill="#f6f4f7"/><circle cx="108.3" cy="180.5" r="7.22" fill="#f6f4f7"/><circle cx="180.5" cy="180.5" r="7.22" fill="#f6f5f7"/><circle cx="252.7" cy="180.5" r="7.22" fill="#ddd8e1"/><circle cx="324.90000000000003" cy="180.5" r="7.22" fill="#fefeff"/><circle cx="397.1" cy="180.5" r="7.22" fill="#dbd5df"/><circle cx="469.3" cy="180.5" r="7.22" fill="#dee9f6"/><circle cx="541.5" cy="180.5" r="7.22" fill="#ecf2fa"/><circle cx="613.7" cy="180.5" r="7.22" fill="#d0e0f2"/><circle cx="685.9" cy="180.5" r="7.22" fill="#e7e3e9"/><circle cx="758.1" cy="180.5" r="7.22" fill="#e3ecf7"/><circle cx="830.3000000000001" cy="180.5" r="7.22" fill="#ebe8ed"/><circle cx="902.5" cy="180.5" r="7.22" fill="#e2ecf7"/><circle cx="974.7" cy="180.5" r="7.22" fill="#ffffff"/><circle cx="1046.9" cy="180.5" r="7.22" fill="#d9e6f5"/><circle cx="1119.1000000000001" cy="180.5" r="7.22" fill="#f9fbfd"/><circle cx="36.1" cy="252.7" r="7.22" fill="#e4edf8"/><circle cx="108.3" cy="252.7" r="7.22" fill="#ffffff"/><circle cx="180.5" cy="252.7" r="7.22" fill="#d7e4f4"/><circle cx="252.7" cy="252.7" r="7.22" fill="#fefeff"/><circle cx="324.90000000000003" cy="252.7" r="7.22" fill="#e2ebf7"/><circle cx="397.1" cy="252.7" r="7.22" fill="#fbfbfc"/><circle cx="469.3" cy="252.7" r="7.22" fill="#e2ecf7"/><circle cx="541.5" cy="252.7" r="7.22" fill="#d2e1f3"/><circle cx="613.7" cy="252.7" r="7.22" fill="#e3dee6"/><circle cx="685.9" cy="252.7" r="7.22" fill="#f7fafd"/><circle cx="758.1" cy="252.7" r="7.22" fill="#efedf1"/><circle cx="830.3000000000001" cy="252.7" r="7.22" fill="#edf3fa"/><circle cx="902.5" cy="252.7" r="7.22" fill="#f2f7fc"/><circle cx="974.7" cy="252.7" r="7.22" fill="#f0edf2"/><circle cx="1046.9" cy="252.7" r="7.22" fill="#fafcfe"/><circle cx="1119.1000000000001" cy="252.7" r="7.22" fill="#edeaef"/><circle cx="36.1" cy="324.90000000000003" r="7.22" fill="#eae6ec"/><circle cx="108.3" cy="324.90000000000003" r="7.22" fill="#eeebef"/><circle cx="180.5" cy="324.90000000000003" r="7.22" fill="#f0f5fb"/><circle cx="252.7" cy="324.90000000000003" r="7.22" fill="#dae7f5"/><circle cx="324.90000000000003" cy="324.90000000000003" r="7.22" fill="#e7eff9"/><circle cx="397.1" cy="324.90000000000003" r="7.22" fill="#fbfafb"/><circle cx="469.3" cy="324.90000000000003" r="7.22" fill="#dcd6e0"/><circle cx="541.5" cy="324.90000000000003" r="7.22" fill="#dce8f6"/><circle cx="613.7" cy="324.90000000000003" r="7.22" fill="#e3ecf7"/><circle cx="685.9" cy="324.90000000000003" r="7.22" fill="#f6f9fc"/><circle cx="758.1" cy="324.90000000000003" r="7.22" fill="#e8eff9"/><circle cx="830.3000000000001" cy="324.90000000000003" r="7.22" fill="#f9f8fa"/><circle cx="902.5" cy="324.90000000000003" r="7.22" fill="#e9e6eb"/><circle cx="974.7" cy="324.90000000000003" r="7.22" fill="#dcd6df"/><circle cx="1046.9" cy="324.90000000000003" r="7.22" fill="#d4e2f3"/><circle cx="1119.1000000000001" cy="324.90000000000003" r="7.22" fill="#dee9f6"/><circle cx="36.1" cy="397.1" r="7.22" fill="#dae7f5"/><circle cx="108.3" cy="397.1" r="7.22" fill="#f4f7fc"/><circle cx="180.5" cy="397.1" r="7.22" fill="#e4dfe7"/><circle cx="252.7" cy="397.1" r="7.22" fill="#d5e3f4"/><circle cx="324.90000000000003" cy="397.1" r="7.22" fill="#e9e5eb"/><circle cx="397.1" cy="397.1" r="7.22" fill="#f0f5fb"/><circle cx="469.3" cy="397.1" r="7.22" fill="#e1dce4"/><circle cx="541.5" cy="397.1" r="7.22" fill="#ddd8e1"/><circle cx="613.7" cy="397.1" r="7.22" fill="#dcd6e0"/><circle cx="685.9" cy="397.1" r="7.22" fill="#dcd6df"/><circle cx="758.1" cy="397.1" r="7.22" fill="#f7f6f8"/><circle cx="830.3000000000001" cy="397.1" r="7.22" fill="#dae7f5"/><circle cx="902.5" cy="397.1" r="7.22" fill="#dad4de"/><circle cx="974.7" cy="397.1" r="7.22" fill="#edeaef"/><circle cx="1046.9" cy="397.1" r="7.22" fill="#f1f6fb"/><circle cx="1119.1000000000001" cy="397.1" r="7.22" fill="#ebf2fa"/><circle cx="36.1" cy="469.3" r="7.22" fill="#e9e6eb"/><circle cx="108.3" cy="469.3" r="7.22" fill="#f0f5fb"/><circle cx="180.5" cy="469.3" r="7.22" fill="#dde8f6"/><circle cx="252.7" cy="469.3" r="7.22" fill="#e0dbe4"/><circle cx="324.90000000000003" cy="469.3" r="7.22" fill="#fcfdfe"/><circle cx="397.1" cy="469.3" r="7.22" fill="#eae7ec"/><circle cx="469.3" cy="469.3" r="7.22" fill="#fcfdfe"/><circle cx="541.5" cy="469.3" r="7.22" fill="#dae6f5"/><circle cx="613.7" cy="469.3" r="7.22" fill="#fcfbfc"/><circle cx="685.9" cy="469.3" r="7.22" fill="#fcfdfe"/><circle cx="758.1" cy="469.3" r="7.22" fill="#cfdff2"/><circle cx="830.3000000000001" cy="469.3" r="7.22" fill="#f5f3f6"/><circle cx="902.5" cy="469.3" r="7.22" fill="#dad4de"/><circle cx="974.7" cy="469.3" r="7.22" fill="#dfe9f6"/><circle cx="1046.9" cy="469.3" r="7.22" fill="#d4e2f3"/><circle cx="1119.1000000000001" cy="469.3" r="7.22" fill="#e5eef8"/><circle cx="36.1" cy="541.5" r="7.22" fill="#eae6ec"/><circle cx="108.3" cy="541.5" r="7.22" fill="#e9f0f9"/><circle cx="180.5" cy="541.5" r="7.22" fill="#e3ecf7"/><circle cx="252.7" cy="541.5" r="7.22" fill="#f5f3f6"/><circle cx="324.90000000000003" cy="541.5" r="7.22" fill="#fcfcfc"/><circle cx="397.1" cy="541.5" r="7.22" fill="#dae6f5"/><circle cx="469.3" cy="541.5" r="7.22" fill="#f4f8fc"/><circle cx="541.5" cy="541.5" r="7.22" fill="#dad4de"/><circle cx="613.7" cy="541.5" r="7.22" fill="#edeaef"/><circle cx="685.9" cy="541.5" r="7.22" fill="#f1eff3"/><circle cx="758.1" cy="541.5" r="7.22" fill="#f2f7fc"/><circle cx="830.3000000000001" cy="541.5" r="7.22" fill="#efecf0"/><circle cx="902.5" cy="541.5" r="7.22" fill="#fdfefe"/><circle cx="974.7" cy="541.5" r="7.22" fill="#f4f8fc"/><circle cx="1046.9" cy="541.5" r="7.22" fill="#f9f8fa"/><circle cx="1119.1000000000001" cy="541.5" r="7.22" fill="#dee9f6"/><circle cx="36.1" cy="613.7" r="7.22" fill="#dcd6e0"/><circle cx="108.3" cy="613.7" r="7.22" fill="#edf3fa"/><circle cx="180.5" cy="613.7" r="7.22" fill="#e9f1f9"/><circle cx="252.7" cy="613.7" r="7.22" fill="#f8f7f9"/><circle cx="324.90000000000003" cy="613.7" r="7.22" fill="#f9f9fa"/><circle cx="397.1" cy="613.7" r="7.22" fill="#ebf2fa"/><circle cx="469.3" cy="613.7" r="7.22" fill="#f8fbfd"/><circle cx="541.5" cy="613.7" r="7.22" fill="#d0e0f2"/><circle cx="613.7" cy="613.7" r="7.22" fill="#dfd9e2"/><circle cx="685.9" cy="613.7" r="7.22" fill="#eef3fa"/><circle cx="758.1" cy="613.7" r="7.22" fill="#f2f0f3"/><circle cx="830.3000000000001" cy="613.7" r="7.22" fill="#e7e3e9"/><circle cx="902.5" cy="613.7" r="7.22" fill="#e3dee6"/><circle cx="974.7" cy="613.7" r="7.22" fill="#ece9ee"/><circle cx="1046.9" cy="613.7" r="7.22" fill="#e7e3e9"/><circle cx="1119.1000000000001" cy="613.7" r="7.22" fill="#e1dce4"/><circle cx="36.1" cy="685.9" r="7.22" fill="#f0f5fb"/><circle cx="108.3" cy="685.9" r="7.22" fill="#f6f4f7"/><circle cx="180.5" cy="685.9" r="7.22" fill="#f3f7fc"/><circle cx="252.7" cy="685.9" r="7.22" fill="#d7e5f4"/><circle cx="324.90000000000003" cy="685.9" r="7.22" fill="#fafcfe"/><circle cx="397.1" cy="685.9" r="7.22" fill="#f5f4f6"/><circle cx="469.3" cy="685.9" r="7.22" fill="#e4edf8"/><circle cx="541.5" cy="685.9" r="7.22" fill="#e2dde5"/><circle cx="613.7" cy="685.9" r="7.22" fill="#f9f9fa"/><circle cx="685.9" cy="685.9" r="7.22" fill="#e7e3ea"/><circle cx="758.1" cy="685.9" r="7.22" fill="#f1f6fb"/><circle cx="830.3000000000001" cy="685.9" r="7.22" fill="#f9f7f9"/><circle cx="902.5" cy="685.9" r="7.22" fill="#f3f7fc"/><circle cx="974.7" cy="685.9" r="7.22" fill="#e4e0e7"/><circle cx="1046.9" cy="685.9" r="7.22" fill="#ddd7e0"/><circle cx="1119.1000000000001" cy="685.9" r="7.22" fill="#eae7ec"/></g></svg>