<?xml version="1.0" standalone="no"?><svg xmlns:xlink="http://www.w3.org/1999/xlink" xmlns="http://www.w3.org/2000/svg" viewBox="0 0 1000 625.0054103653944" preserveAspectRatio="xMaxYMax slice"><g transform="scale(0.8656584631099645)"><rect x="0" y="0" width="1155.2" height="722" fill="#ffffff"/><circle cx="36.1" cy="36.1" r="7.22" fill="#f3f7fc"/><circle cx="108.3" cy="36.1" r="7.22" fill="#e4e0e7"/><circle cx="180.5" cy="36.1" r="7.22" fill="#e3dee6"/><circle cx="252.7" cy="36.1" r="7.22" fill="#f3f7fc"/><circle cx="324.90000000000003" cy="36.1" r="7.22" fill="#afc9e8"/><circle cx="397.1" cy="36.1" r="7.22" fill="#adc7e8"/><circle cx="469.3" cy="36.1" r="7.22" fill="#e5e1e8"/><circle cx="541.5" cy="36.1" r="7.22" fill="#efecf0"/><circle cx="613.7" cy="36.1" r="7.22" fill="#e7e3ea"/><circle cx="685.9" cy="36.1" r="7.22" fill="#f4f3f6"/><circle cx="758.1" cy="36.1" r="7.22" fill="#c3d6ee"/><circle cx="830.3000000000001" cy="36.1" r="7.22" fill="#f0edf1"/><circle cx="902.5" cy="36.1" r="7.22" fill="#c9daf0"/><circle cx="974.7" cy="36.1" r="7.22" fill="#afc9e8"/><circle cx="1046.9" cy="36.1" r="7.22" fill="#dfeaf6"/><circle cx="1119.1000000000001" cy="36.1" r="7.22" fill="#f3f1f4"/><circle cx="36.1" cy="108.3" r="7.22" fill="#e7e4ea"/><circle cx="108.3" cy="108.3" r="7.22" fill="#f3f7fc"/><circle cx="180.5" cy="108.3" r="7.22" fill="#c7d9ef"/><circle cx="252.7" cy="108.3" r="7.22" fill="#e1dde5"/><circle cx="324.90000000000003" cy="108.3" r="7.22" fill="#e1dce4"/><circle cx="397.1" cy="108.3" r="7.22" fill="#a4c2e5"/><circle cx="469.3" cy="108.3" r="7.22" fill="#d8e5f4"/><circle cx="541.5" cy="108.3" r="7.22" fill="#f7fafd"/><circle cx="613.7" cy="108.3" r="7.22" fill="#c0d5ed"/><circle cx="685.9" cy="108.3" r="7.22" fill="#f4f7fc"/><circle cx="758.1" cy="108.3" r="7.22" fill="#f9f8f9"/><circle cx="830.3000000000001" cy="108.3" r="7.22" fill="#e9f0f9"/><circle cx="902.5" cy="108.3" r="7.22" fill="#e7e3ea"/><circle cx="974.7" cy="108.3" r="7.22" fill="#d9e5f4"/><circle cx="1046.9" cy="108.3" r="7.22" fill="#e8e4ea"/><circle cx="1119.1000000000001" cy="108.3" r="7.22" fill="#f6f9fc"/><circle cx="36.1" cy="180.5" r="7.22" fill="#edeaef"/><circle cx="108.3" cy="180.5" r="7.22" fill="#e6e1e8"/><circle cx="180.5" cy="180.5" r="7.22" fill="#edeaef"/><circle cx="252.7" cy="180.5" r="7.22" fill="#edeaef"/><circle cx="324.90000000000003" cy="180.5" r="7.22" fill="#fbfcfe"/><circle cx="397.1" cy="180.5" r="7.22" fill="#edf3fa"/><circle cx="469.3" cy="180.5" r="7.22" fill="#e1ebf7"/><circle cx="541.5" cy="180.5" r="7.22" fill="#dbd5de"/><circle cx="613.7" cy="180.5" r="7.22" fill="#f3f1f5"/><circle cx="685.9" cy="180.5" r="7.22" fill="#f9f8fa"/><circle cx="758.1" cy="180.5" r="7.22" fill="#cdddf1"/><circle cx="830.3000000000001" cy="180.5" r="7.22" fill="#efecf1"/><circle cx="902.5" cy="180.5" r="7.22" fill="#9fbee4"/><circle cx="974.7" cy="180.5" r="7.22" fill="#f0edf1"/><circle cx="1046.9" cy="180.5" r="7.22" fill="#dbe7f5"/><circle cx="1119.1000000000001" cy="180.5" r="7.22" fill="#c8daf0"/><circle cx="36.1" cy="252.7" r="7.22" fill="#b3cbe9"/><circle cx="108.3" cy="252.7" r="7.22" fill="#f4f2f5"/><circle cx="180.5" cy="252.7" r="7.22" fill="#f5f4f6"/><circle cx="252.7" cy="252.7" r="7.22" fill="#e8e4ea"/><circle cx="324.90000000000003" cy="252.7" r="7.22" fill="#e7e3ea"/><circle cx="397.1" cy="252.7" r="7.22" fill="#ddd8e1"/><circle cx="469.3" cy="252.7" r="7.22" fill="#eeebf0"/><circle cx="541.5" cy="252.7" r="7.22" fill="#f1eef2"/><circle cx="613.7" cy="252.7" r="7.22" fill="#faf9fb"/><circle cx="685.9" cy="252.7" r="7.22" fill="#a9c5e7"/><circle cx="758.1" cy="252.7" r="7.22" fill="#f4f2f5"/><circle cx="830.3000000000001" cy="252.7" r="7.22" fill="#bbd1ec"/><circle cx="902.5" cy="252.7" r="7.22" fill="#fbfbfc"/><circle cx="974.7" cy="252.7" r="7.22" fill="#f2f0f4"/><circle cx="1046.9" cy="252.7" r="7.22" fill="#c8daef"/><circle cx="1119.1000000000001" cy="252.7" r="7.22" fill="#f7f9fd"/><circle cx="36.1" cy="324.90000000000003" r="7.22" fill="#f2f0f3"/><circle cx="108.3" cy="324.90000000000003" r="7.22" fill="#edf3fa"/><circle cx="180.5" cy="324.90000000000003" r="7.22" fill="#fafcfe"/><circle cx="252.7" cy="324.90000000000003" r="7.22" fill="#fefeff"/><circle cx="324.90000000000003" cy="324.90000000000003" r="7.22" fill="#b2cbe9"/><circle cx="397.1" cy="324.90000000000003" r="7.22" fill="#f6f4f7"/><circle cx="469.3" cy="324.90000000000003" r="7.22" fill="#f1eef2"/><circle cx="541.5" cy="324.90000000000003" r="7.22" fill="#eff4fa"/><circle cx="613.7" cy="324.90000000000003" r="7.22" fill="#f2f0f4"/><circle cx="685.9" cy="324.90000000000003" r="7.22" fill="#f3f7fc"/><circle cx="758.1" cy="324.90000000000003" r="7.22" fill="#ddd8e1"/><circle cx="830.3000000000001" cy="324.90000000000003" r="7.22" fill="#dad4de"/><circle cx="902.5" cy="324.90000000000003" r="7.22" fill="#ddd8e1"/><circle cx="974.7" cy="324.90000000000003" r="7.22" fill="#d5e3f3"/><circle cx="1046.9" cy="324.90000000000003" r="7.22" fill="#e9e6eb"/><circle cx="1119.1000000000001" cy="324.90000000000003" r="7.22" fill="#f2f0f3"/><circle cx="36.1" cy="397.1" r="7.22" fill="#f1eef2"/><circle cx="108.3" cy="397.1" r="7.22" fill="#d8e5f4"/><circle cx="180.5" cy="397.1" r="7.22" fill="#fcfbfc"/><circle cx="252.7" cy="397.1" r="7.22" fill="#e0dbe4"/><circle cx="324.90000000000003" cy="397.1" r="7.22" fill="#c6d8ef"/><circle cx="397.1" cy="397.1" r="7.22" fill="#e1ebf7"/><circle cx="469.3" cy="397.1" r="7.22" fill="#f8fafd"/><circle cx="541.5" cy="397.1" r="7.22" fill="#bbd1ec"/><circle cx="613.7" cy="397.1" r="7.22" fill="#b5cdea"/><circle cx="685.9" cy="397.1" r="7.22" fill="#f9f8f9"/><circle cx="758.1" cy="397.1" r="7.22" fill="#e3dee6"/><circle cx="830.3000000000001" cy="397.1" r="7.22" fill="#e2dde5"/><circle cx="902.5" cy="397.1" r="7.22" fill="#f8fafd"/><circle cx="974.7" cy="397.1" r="7.22" fill="#f2f6fb"/><circle cx="1046.9" cy="397.1" r="7.22" fill="#fbfafb"/><circle cx="1119.1000000000001" cy="397.1" r="7.22" fill="#fdfdfd"/><circle cx="36.1" cy="469.3" r="7.22" fill="#d7e4f4"/><circle cx="108.3" cy="469.3" r="7.22" fill="#fdfdfd"/><circle cx="180.5" cy="469.3" r="7.22" fill="#ece9ee"/><circle cx="252.7" cy="469.3" r="7.22" fill="#ecf2fa"/><circle cx="324.90000000000003" cy="469.3" r="7.22" fill="#ddd7e1"/><circle cx="397.1" cy="469.3" r="7.22" fill="#c5d8ef"/><circle cx="469.3" cy="469.3" r="7.22" fill="#a6c3e6"/><circle cx="541.5" cy="469.3" r="7.22" fill="#b2cbe9"/><circle cx="613.7" cy="469.3" r="7.22" fill="#aec8e8"/><circle cx="685.9" cy="469.3" r="7.22" fill="#b3ccea"/><circle cx="758.1" cy="469.3" r="7.22" fill="#a4c2e5"/><circle cx="830.3000000000001" cy="469.3" r="7.22" fill="#d3e1f2"/><circle cx="902.5" cy="469.3" r="7.22" fill="#b5cdea"/><circle cx="974.7" cy="469.3" r="7.22" fill="#cedef1"/><circle cx="1046.9" cy="469.3" r="7.22" fill="#f6f9fc"/><circle cx="1119.1000000000001" cy="469.3" r="7.22" fill="#fefefe"/><circle cx="36.1" cy="541.5" r="7.22" fill="#fbfbfc"/><circle cx="108.3" cy="541.5" r="7.22" fill="#c3d7ee"/><circle cx="180.5" cy="541.5" r="7.22" fill="#edeaef"/><circle cx="252.7" cy="541.5" r="7.22" fill="#a9c5e7"/><circle cx="324.90000000000003" cy="541.5" r="7.22" fill="#dad4de"/><circle cx="397.1" cy="541.5" r="7.22" fill="#acc7e8"/><circle cx="469.3" cy="541.5" r="7.22" fill="#c3d6ee"/><circle cx="541.5" cy="541.5" r="7.22" fill="#fcfcfc"/><circle cx="613.7" cy="541.5" r="7.22" fill="#ded8e1"/><circle cx="685.9" cy="541.5" r="7.22" fill="#b6cdea"/><circle cx="758.1" cy="541.5" r="7.22" fill="#ebf2f9"/><circle cx="830.3000000000001" cy="541.5" r="7.22" fill="#f7f6f8"/><circle cx="902.5" cy="541.5" r="7.22" fill="#a7c3e6"/><circle cx="974.7" cy="541.5" r="7.22" fill="#c3d6ee"/><circle cx="1046.9" cy="541.5" r="7.22" fill="#e7e3ea"/><circle cx="1119.1000000000001" cy="541.5" r="7.22" fill="#e9e5eb"/><circle cx="36.1" cy="613.7" r="7.22" fill="#aac5e7"/><circle cx="108.3" cy="613.7" r="7.22" fill="#f6f9fc"/><circle cx="180.5" cy="613.7" r="7.22" fill="#ddd7e0"/><circle cx="252.7" cy="613.7" r="7.22" fill="#f8f7f9"/><circle cx="324.90000000000003" cy="613.7" r="7.22" fill="#f3f1f5"/><circle cx="397.1" cy="613.7" r="7.22" fill="#dce7f5"/><circle cx="469.3" cy="613.7" r="7.22" fill="#f7fafd"/><circle cx="541.5" cy="613.7" r="7.22" fill="#dad4de"/><circle cx="613.7" cy="613.7" r="7.22" fill="#a2c0e5"/><circle cx="685.9" cy="613.7" r="7.22" fill="#eff4fa"/><circle cx="758.1" cy="613.7" r="7.22" fill="#a6c3e6"/><circle cx="830.3000000000001" cy="613.7" r="7.22" fill="#e7e3e9"/><circle cx="902.5" cy="613.7" r="7.22" fill="#eaf1f9"/><circle cx="974.7" cy="613.7" r="7.22" fill="#fafbfd"/><circle cx="1046.9" cy="613.7" r="7.22" fill="#cdddf1"/><circle cx="1119.1000000000001" cy="613.7" r="7.22" fill="#f5f3f6"/><circle cx="36.1" cy="685.9" r="7.22" fill="#d4e2f3"/><circle cx="108.3" cy="685.9" r="7.22" fill="#b3ccea"/><circle cx="180.5" cy="685.9" r="7.22" fill="#fdfdfe"/><circle cx="252.7" cy="685.9" r="7.22" fill="#a6c3e6"/><circle cx="324.90000000000003" cy="685.9" r="7.22" fill="#e1dce4"/><circle cx="397.1" cy="685.9" r="7.22" fill="#e7e3e9"/><circle cx="469.3" cy="685.9" r="7.22" fill="#f6f5f7"/><circle cx="541.5" cy="685.9" r="7.22" fill="#d0dff2"/><circle cx="613.7" cy="685.9" r="7.22" fill="#f3f7fc"/><circle cx="685.9" cy="685.9" r="7.22" fill="#b1cae9"/><circle cx="758.1" cy="685.9" r="7.22" fill="#dbe6f5"/><circle cx="830.3000000000001" cy="685.9" r="7.22" fill="#e4e0e7"/><circle cx="902.5" cy="685.9" r="7.22" fill="#dfdae2"/><circle cx="974.7" cy="685.9" r="7.22" fill="#e6e2e9"/><circle cx="1046.9" cy="685.9" r="7.22" fill="#f0f5fb"/><circle cx="1119.1000000000001" cy="685.9" r="7.22" fill="#e8e4ea"/></g></svg>